/* XPM */
static char *out[] = {
/* columns rows colors chars-per-pixel */
"128 128 35 1 ",
"  c #232735",
". c #262A36",
"X c #282C37",
"o c #262A38",
"O c #2A2D3B",
"+ c #2D313E",
"@ c #30343F",
"# c #2F3240",
"$ c #323643",
"% c #343844",
"& c #383C47",
"* c #373A48",
"= c #3A3E4B",
"- c #3D414E",
"; c #3E4251",
": c #40444F",
"> c #424553",
", c #454956",
"< c #484C57",
"1 c #464A59",
"2 c #494D5B",
"3 c #4D515E",
"4 c #50545F",
"5 c #4E5261",
"6 c #525563",
"7 c #555966",
"8 c #585C67",
"9 c #565A69",
"0 c #5A5D6B",
"q c #5D616E",
"w c #5E6271",
"e c #60646F",
"r c #626674",
"t c #646875",
"y c #656978",
/* pixels */
"%%%%%%%#X=e3>:%$%%%%%%%%%%%%%%:0eq8ettt84<:--&&&@&@-<qX.X@@%%%%%%%@%@&@@.<e<:-&&-+#@-+%%%%%%-@-8ee8ettt84;;--%%%%%%&48+XX@@%%%%%",
"%%%$%%$+X:q1>=%%%%%%%%%%%%%%%%:8:448888-:&&&&@@@%@&@&q;..+%%%%%%%%%%&@%@X<e<:-&%#--+-@%%%%%@@@-<;34888w;----@@@%%%@%-8&X.+%%%%%%",
"$$$#$$#XX16>-%%%%%%%%@++@%%%%%:e:::,<<8<&&@@@&@%%%%%@<8%..@@%%@@@%@@@@@X.<4:-%%%-#$$@@+%%%%%-+;6;;;;;;8;-+%%%%%%%%%%%<8@.X@%%@@@",
"OXXXoXoXX82-@++++O+O+XXXX$%%%X<0--::::8:&&@&&@&&%%%%@&8<X.+@+XXXXXXX.X..X4<:@X@@O#O#.XX.O@%%+-;8;;;<5;0;-%%%%%%%%%%%%&q4..X@@XXX",
"XXXXXXXX%q+XXXXXXXXXXXXXXXXXXX<0-@-;;;q,&%&@&@%@&@@XX.-8O....X.XXXXXXXXX-7@.X...+ooo    XX.o..;0---;;;85-@%%%%%%%%%XXX<eXXXXXXXX",
"63662260eeq07442>-=%@+++XXXXXX80-%@%--q<-%@&@&&@@+X+@&4e8qeeq4ee4<44<<48ee8q8444;;-*#-##+Oo-..;0-$$$-;66-%%%%%%%@XXX@-4e88ee88e8",
":>>1>>>1<2444477909eq0966422::eq-%%%%-q<-&&@@@@X.+&;<848tteeq8t8<<<<:-:<<<444748q09yq97743;;;;00-O#$-;57;&%%@@@OX+&<<4888ee88ee4",
">>::::>>>>>:>>>>>><rrttre080q77q-%@%%-4q;&@+OO@,4<<<<;;<;<<<<<48:-:&:<<-;;<;;;;;;;2wwyrweqwqr889-$-#$;59-&@+XX@;44<<;<;<<<4<<<84",
"::=%%=:>>:=::>>:::202,:::>::>,,q;%%%%-4q-@XO-<et4;;<;<;;;;<;;<48:--%%-::<----;;<;;593;--;-;;5;;0;#-+--;9;+X+-3qt9;;;;;;;-;;;;388",
">-%%%%%=:%%$%:::::<6:&%%%&&::>:0,%%%@-qq@%<qq84;;<;;;;;<<;;;;<<q<-@%%%&&--%%@----;;8;--#----;;;0;--##-20-#;qwq3;;<;;;;;-;;;;;;88",
">-%%%%%@%%@%&@%&=:<4=&%%%%%&:::0<%%%%-<e6wq4;;<;;<<------&&-;;;8;-%%%%&@@%%%%%%%--;7;#-++--+-;;0--+@#-2wqtq32;;;;<-;;;----%-;;48",
">;*%%%%%%%%%@&@@&:<6:%%%%$%$%::0;%%%%-,qq4<;;<;;;--&&%%%&@&&;;<8<;%%%%@&@%%%%%%%-;3w;-+-@++--;;0-@+---;r06;;;;;;;;---;-%&&%%;;78",
">:*$%%%%@%@&@&@&%:29:$$%$%%%$::0<%%%%@;q--;;;;;-&&%%%%%%@&%%-;<q-;&%@&@@%%%%%%%%--;w-@@+--+@+-;0;-%%-@;9-;-;;;--;#$$%%%%-@@+;;77",
":-%$%%%%%%&@@%%&&:26:$%%%%$%$::q<@%%%-<e X%&%%&%@&&@%%&@%@%%&<;8<-%%&@&%%%%%%%%%-;;y--@-+@+-O-;0;@@%+-;6#$$$$--@--+-%%%%@+---;43",
":=%%%%%%%%%%%%%@::24@@%%%%%%%&>02-%%@--e.O@%%@%@&@&&%%@&%%@&%-<8;-%%@&%%@%%@%%%%-;;w.+-+@@@-+-;0;%-%@--4$o$#--@+%%@-%%%%@%+@--44",
">*%%%%%%%%@&%%%%::3r,@@$%%%%%%>9<-@++.@q.X@%%%%@@&@@%%&@%%&@%@-8;&%%%%%%%%%%%%%%;;8y;.+@%-@+--;7<-+@+O#3$o$-+##-%%@+%%%@%%-@+-;4",
":&%@%%%%%%%%%%%%::6re$XX%%%%%%:43@...@;t@.+--+@-@-%@-@+-+-@-$ +8<%%%%%%%@%%%%%%%--8te-oo-++-++-6;#o#o#1w*o#$$$*$%@-@$$$$*$$*#.*8",
":&%%%%%%%@%%%%$%&:6rr0XXXXXXXXX4,.+-qwtt;+..+..+X.+++++@$$@@O #8<%%%%%%%%%%%%%%%-;8tt6Oo      +4-o#;9ywy=o #OooO.+@@###$$$$#oo#q",
":=$%%%%%%%%%%%%%:>6rrr:$&:::446qq4tewqqt6++++O.X..  ....XX.. .$q;%%%%%%%%%%%%%%%%;8tyy;---;;466w19wwwwww2#####OOO    oooOo  oo*9",
">=@%%%%%%%%%%%%%&>4rrrrre00qq07048484<<wwqqqq4<<;-----%-O+++..@6;&%%%%%%%%%%%@%%--8twyewewer08799666515www0w0212;;;---**####o $6",
">=$$%@%%%%%%%%%%::4r62422222,<,::,;:<;<q<3<333444442<<<;;3;34<<4-&%%%%%@@%%%%%@--;9r5555;;46;3;;;1;1;129525555556565;5;;11;155;9",
">&%%%%%%%%%%%%%%::4w2>>>::::::::;-;;;;,q@;--;;;;;;;;;--;;;;4wwwq-%%%%%%%@-%%%%@@-;9y;;;;--;;;;;;;;;;1;25*;;;;;,;;;;;;;--;;11www0",
":*%%%%%%%%%%$$%$::602:>:::&&&:::-%%%-;;w.@----%%-@-@%%%%--;;qtw8:&%%%%%%@@@-%%-@-;9y1;;;----;;--=***=;12##**$=*%-$$$-$*-=;;1qwyw",
":@@@@@@%XXXX@@$$=:50>:>:&%%$$%%%%%%%@-;w.O+@%%@%+@-@%%%%@-;<<wt8-@@@X@@@+.O+@@@@-;9r1;1;-@+@--%&*$*#*=;2##*$%%%%$$$%$$$$**;;1www",
"$OXXXXXXXX XXXXXX:37:::%%%%%%$$%@%%%%-;t.O@@%%-$@%%%%%%%$$--;4t6&@X.........O..OO-77;;;-O-@@@&%@$$%%%=,5*o$$$$%%%%$%%%%%$*-;;6wq",
"0062:*#+@@X X XXX+36>:%%%%%%$$%%@-%%@-;w- @@%@++%%%@%%%%@-$-;;qq888<--@@@O...... #61;---@@@-&@@&$$%%%%>7*o#**$%%%%%%%%%%*$%-;2ww",
"rr02>40rrrq66:$XXX:3::%%%%%$%%%%%@@@@%;q< +-%%$-%-@+%%%%$$$$--;ttt84<4etttq48;@Oo 5;;-++%%@%@&%%*%%%%%>9-oo*$$**%%%%%%%%$$%$$-5w",
"6,:>>>>>60wrrrrtrq02:%%%%%%%%%%%@@--%-;48. @@-$@%%@-%%%%$$O..@;84<;-;;;;4qeeetttrry1-@--@%%%%%%%%%%%%*>55oo#$*%$%%%%%%%%$#Ooo#;9",
";;;;>>>::>2670errrr,:%%%%%%%$%%%%%%@$%-2q#oO##$--$##@@@+ooo#;75;;;;;;<--;;<488etttr;;--+%%%%%%%%%%@%%%-39Oo##+$%$$$$$###O.o#;56;",
";;;;::=&&=:::,27rrq:&%%%%%%%%%%%%%%%%$-;w;o.o# OooO XXo. #;53;;;;;--;;---;--;;48tt9;--#+%%@%%%@%%%%%%%=2w*o o.oOoOOoOoooo#;55;;;",
"--*$**%%%*&&:::2et4:&@%%%%@%%%%%%%%%%%$-ww95;;;;--------;q2;;--$--@@--@@-@+-;-;;rt3;###-%%%%%&@&%%%%%**;qwq5;;;;;;------;6;2---$",
"-@$$$%%%$%%%%::,qr2:&@%%%%%%%%%%%$%%%%-;wywwyywywwywwyw7;;;-$$%%%%@-%@-@+--+--;;0t2;$--+%%%%%@&@%@%%%$$-qywyyyywywwwywww;;--*$*%",
"++@-%%%@%%%%%%--qt;;-%%%%@%%@-@%%%%%-@@-8tyyyyyryrrwrww7###$$$$%%%%%%%*$$$$**$=;0w1>*$%%%%%%%$*$%%-@@-@-0ryrrrrrrrrrrrr9###$$$$*",
"@-@+%%%%%%%%%%&-8e;;-%%%%%%%@-@%%%%%@++@8tyw755743555556;Oo#*$%$%%%%%%$$*$$$$$*>70,>%%%$%%$%%%$*%%@%@@+%7rr09699955555351# #$*$$",
"%%-+%%%%%%%%%%&-8q-%+@%%%%%%@@+-%%@%+..+e0;;;-;;;;;-;;;5w5oo#**$%%%%%%$*$**$*#*>37;*#$$$%%$%%%$$%%%@+XX%0021>>=>1==>>>>,01###$*$",
"@%%@%%%%%%%%%%-;4;.X..@%%%%%+-@@%@@...@e7;;;$-#-#+---;;;wwOoo$$*%%%%%$$$$$$$$**>2,oo o#$%%%%%%$$@%@X X#65>;=*$******=>>,w0#oo$$*",
"%%%%@@%%%@%%%%%-48;;%+..X@@-+@-++.XX&4t4-@@-$$-#-@@@-;;;ww9#oo#$$%%$$$$$*$$$##*;292=$#  X+$$#*$$XoXX%7w3-*$$$*$*$**$%=>,0y3OoO$$",
"+OX+XXXX++@++X+-8ttt8;-+...O++@O..+;8t8@@-@@-#-#@+-++-5;wyw;oooOO+OOoOO#+####o#=2rtyw2;#X..O###ooo#;qwq$%$%%%$%$$$$$%=>,wrr>oooO",
"XXXX+X++@@XXXXX+;ttttte83--O. ...&4ttt8.-+-+@++-@-+--+;;wwyw*#o#oXOOOoo###Ooo#oo>rtrrrr95-*Oooooo#7wtw9+$$%%%%$*$$*$%*>,wyrr*#OO",
"eeeteeeeeeeeeee8eeeettttetee4-..;3-;;<8O+@@+--@++-@++-;;wwwywwwwrwrrrrrwrwrwwyw0rwrrrrrrrrrr9$#o,5;;,;7+#%%$$*$$*$$*%%=>rrwwwwww",
"<<44<48e<-----------48e8eeeeee88t4-@&;8X+--+-@-O-+--+@-;w;------1256560r9>;;;;;;--;*5w00qqwq099wy9*#*=7##$$$$#$$##$$$**>r5>;;=>>",
":&::::4e<&%&&&&&+-;84;;<;;;;;;;8t;-%&;4X..++ ....O O++-;w---#---;;--=;;r6*******#*165>>;>>,>>;>9r0**$;7Oo####oooo#####$>w2>***==",
"%%%%%&<e4&@@@@@&484<;<;;;<<;;;;8t4%%@;8---;-;;;;3433;747w;#--+@-$$**$=>r9*#**###365>>>>>>>>>>>>9ww$$*;0;**;;=1=15525255991*$$%*$",
"%%%%%&<e4&&@@@<88<;;;;;<;;;<;;;4t7-4qett80q8qeqq43348;;3w;-+-#+-$*$$$*>r9***#o6w0,>,>>>>>>>>>>>9ww=50www0ww00ww0525962>=w=**%%%$",
"%%%%%%<e4&@X&e8<;;<;<;;-;------<t43;4;;;<;;;;;;;;;;;--O56;--#-++$%$**$>r9*##=991>>>>>>>>>;-*=>>6y01132,;,;>>>>>>>>>>;=O99-%%%%%%",
"%%%%%%:84&&48-;-;<;<---&&&%&--;<t3;;;-;;;;;-;;;;--;-# -w;;$#+--+*$*$%%=r9**561>>>>>>>;;=%$$$*>>5w5,,;;;;>,>;>=>>>>==$o$r3;*%%%%%",
"%%%%%%&8e484<;;<;;;-&&%%%%%%%-;<t4;<-%%&-;---%-----#oo;w;-$$-#-#$%$$$$$ww5w5>>>>>>>-***#%%%%$=>5y5,,;=#*==>=***=***$Oo1r1=%%%$%%",
"@@@@X@&8e4<<-<;;;-&%%%%%%%%%&-;;t8;;-@%%&&%%@%@-#-#+ +001-$$$##-$$$###$9r61>>>>>>;*$*$$$%%%$$*>3w0;;*$*$$****$$$$*$#o#0r>&%@@$$$",
"XXXXXXX8t%----&&&%%%%%%%%%%%%%-;t4;-&%%%%%%%%%%%%%@XX%t<-  oooOo o oooo9y==;;===*%%%%%%%%@%%%%=,r7>=@%%%%%@&@%%%$%%o.>r7Oooo.. .",
":&&&&&%8t-.@%%%%%%%%%%%%%%%@%%-;q4;@%%%%%%%%%%%%%@+..ee84;;6;;;3>***==*1y=o*#*#*%%%%%%%%%%%%$**>w7>=&%%%%%%@&%%%$%Oo+7r91;,62><2",
"888etteet<.+%%%%%%%%%%%%%%%%%%%@<4;-%%%%%%%%%%%%%%X.-t438;;40090960ryryry=o#$$*$%%$*$%%%%%%%$%$O96:*%%%@%%&%@&%%$@XX=q3351277767",
"::<<eettt<.+@%%%%%%%%%%@%%%%%%+.;4;-%%@%%%%%%%%%%XXX8e;;;;;-;;;;>>,6wyryy;oo$$*$$%%$%%%%%@%%$$#o66:&%%&@@%@&@%@&$OXO391>>>>>>>>>",
":;;<4eett6..+-#-%%%@%%%@-@@%-+oo-4-&%%%%%%@%%%%%%..@84;;-;;-;;;->>>>6rrrr1oo$**#$$$$$#$$%%%$$#oo15==%%%&&@&%@&%@@X.@q4>>1=>>>>>>",
",<::<<ett0Oo.+OoXX..X%XX.@@O .oo;4;&%%%%%%%%%%%%@.X4t-;;-%--;;;->>>>>6wrrwOoO#Ooooo ###oX+#O.ooo15;*&@%@@&&@%%@&@X.<q<>>*$**==>>",
"----::48yq-o..ooXX....X.+...    -4;&%%%%%%%%%%%%+.-8e;;-%%%%-%&--;;>>>>0ry#oooOooooo ooo...ooooo=6;*%%%%%%@&%%%@XX@t8<>**$%%%%**",
"%%&&-<:<0e722222<<<<;<<<;;-;;;-+-<;&%@%%%%@%%%%%XO4t4;-%%%%%%%%&$$$=;>>19r522522222;,,122>=;>,*O*0;=%&@%%%@%%%%%XXqe4:=%*$%%$$*$",
"%%%%---;<8ttyyyyttteyytyyyteyyq984;-%%%%%%%%%@%@.-e8;;-%%%%%%%%@%%%%$;>>10yrryryyryrrryrywwwww0990;**$$$%$%%%%%@X%ee,,%$$%%%%%%%",
"%%%%%%-;;<7ty0668743;3;;;;;;;;;;4q;-%%%%%@%%%%%@X;t4;;%%%%%%%%%%%%%%$$;;>>0ry0666652,,>,>1>>>>>>2r1=*$%$%%$$%%$@X4t7::%%%%$$%%%%",
"%%%%%%%---;ty;;;;;;;;;;;;;;2;3;;4e;-%%-@%%%%%%@X.te;+@%@@&%%@%@%%%%$$$*-=;*rw2>>>>>>>>>;>>>>>>>>9r1=%%%%%%%%%$%X@et<O@%%%$%$%$%%",
"%%%%%%%%#O;tr;;---;;;;;;;-;;;;3;7e;-%@+@@%%@%@+.Ottq+.@@&@&@&@&&%%$*$*$$#O>r01>====->>>;>==;>>>>0r>*%%%%%%%%$$+.-et0$O$%%%$%%%%%",
"%%%%%%%%Oo;y6;-$-#%%-%-%---#-;;2qq;-@-@-&@@.OXX.4ttt-.+-%@%@%%&@%$%%$$*$Oo6r6>=*$%****==*#**>>>1wr1*%%%$$$OOOooo<tte,oO%%%%%%%%@",
"%%%@%%%%oO5w;;*$%%%%%%%%-##+-;;2eq;-@@@-@X.....@t8488..%%%%%%%@&%%%%*$$$Ooww>;*#%%$%%$$%***$*>>1wr>*%%%%#oo o  *88<66+X$%@%%%%%%",
"%%%%%%%@#O803;**%%%%%%%%++#----;t8;@@++O@@@;ete4;--;e;O@%%%%%%@@%%%%$$$## 0r>=$*%%%%%%$%$*$$$=>5rr;*$*#O#$$>wrw6,;:<r>O$%%%%&@%%",
"%%%%@%@+ @r6;;$$%%%%%%%%$--++--7t8----;;ee87;;;;-&--e8.O%%%%%%&%%%%%$*$Oo*w0>=*#%%%$*$$$$$$$**>9rr*$*;;>wr071>>==%*>93OO%%%%%%%%",
"@&@&&@@+o=r5>>%%%%%%%%%%%%%%$*>0ww50wrr653>=&=&%%%%*2qXXO%%$@&&@%%%%%%%+X1r2>;$$%%%%%%%%$%%%**;79r59wyr651>====*$%$=20#oO$%%%%%$",
"&@&@@&@@o>q1>=%%%%%%%%%$%%%%$$;9>1220001>&$$$%%%%%%%=r,XX+%%&$$&@%@%%%$$X2r>,=*$%$%%%%%$%%%%$*;3,1159wr>>**%$*%%$%*$>0=oo#$$%%%%",
"@@@@@&@X 26>;%%%%%%%$##$%$$%*$10>>>>>>9>=$%%%%%$%%%%$>7@.o%%$$@@$@%@$%@X 35>;%%%$%%$@$@$%%%%$*16;1>>=16>=$%%$%%%%%$%*2woo##$$$$$",
"X@X.XXXXo92=$$++@@##@Xoo##$$##10;;>>>>0>*$%%%%%%%%$$%%0>..O@@X..X+XXXXXXO6>-%###+@@$@XXX@@$$##,7>=>>1;61*%%%%%%%%%%$%*03 o##@O..",
"+.XXX.X@>e=#X. .X X ooooXXO#oo2w=**=>>0,*$$%$%%%%$@+XX,6+O+$+.+&+XXXX X@,9:Oo   XooX....XXOOX.>9=*====95=*$%%%$$%%@+OO1wOO+@OX@=",
"<<4<<<<4qw997776651=#o  oXooo 9q=***%>02-$%%*$%%+OXXX>0e9797767711342>28ee88666764<%X   X .X.o20=$*$=156=$%%$%%$OooXO>9r778q9786",
"::::>:>>,>>,<<40ww0rrrrwww001#ww-$$*$>93:*%%$$#o X+9q70ettttttr9>>>>>:>>>>,,,260eq8rrerrer002$90=**$*>59;*%%$%$ oX+0q80ryytttrr6",
":<::::>>>>>>>>>>::2wrrwwwwwwwwww;$$$%=77>*$+XX#*386,>>>>>>:>>>69>>,>:>:>>>>>:>:>:,<errre0eqeqqq0=*$$*=59>*$#oo#*297>>>>,>>>>>:86",
"::=%&=:>>:--:>>>>>2w522>;;>>>>>0>$%%$=7w=##*->007:>>>>>>:>>:>>59>>=*&=:>>:==::>>>>3q632>::>>>>,9=*$$%;20=##$=1ww91>>>>>>>>>>>>77",
"::%%%%%&&*$$*&==:>,7>=$*$===>>>01$%%%=7w#;2w0552>>>>>>>>>>>>>><9>=%%%%%&=&%%*====><4:&%%$*&=>>,9>**$%=27$;209651>>>>>>>>>>>>>>79",
":=%%%%%%%%%$@%&%-:25=$$*%%$*=>>0,$%%$&3r0w02>>1>>>>>,,:&**%=>>19::%%%%%%%%%%%%&%%>,6=%%%$%%%%>,9>%$$%%1w0rw11>>>>>>>>>:****=>>69",
",:&%%%%%%%%&%%$%$>27-*$$$$$$*->01$%%%*1rw6>>>>;>>>:*$%%$%%%=>>19>:%%%%%%%%%%%%%%*:<q-%%%%%%%$>,0>%%%%*1wr5>>>>>>>>=**%%$$%%%>>69",
">-%%%%%%&$%@%%$%$>19;*$*$$**$;>02%%%$*,w*-;--:-:=*%$$*$%%%%%-><9>:%%%@%%%%%%%%%%%:2q:%%%%%%%%:>0>$%%%$<6====>>=;=*$$%%%%%%%%=>66",
">>%%%%%%@&@&%%$%*>16$$$$*$$$*;>03%%%*$>wo$*$%%**%%%%$$%%%%%%*><9>:*%%%%%%%$%%%%%&:28%@%%%%%%%*,9>%%%%$>6#$****%***$$%%%%%%%%%>44",
">=%%%%%%%@%@$&%%;>19$#*$$$$$$*>03$$$$*>w.o$%%%%%%%%%%%%%%%%%%=<9>&$%%%%%%%%%%%%*=>3eO+%%%%%%%*>q>%$%%%>6* ##$$*$%%*$%%$*%%$%*=64",
">=%%%%%$%%%&$$%%=>5r>oO$*#**$*;93%$$+Xow.X+%%%%%%%%%$%%%$%%%$%%9>%%%%%@%%%%%%%%$=>6t6XO$%%@%$*=91%%$+X$4###**$$**%%$%%%$%%*$$$>4",
";*%%%$$%%%%%%%%@-:3yw$oO#$$$##=63$XXo$*r#o##$#$$$$$$$$$$$%%%$o$9>%%%%@%%%%%%%%%%&,8re&XX@@@@@@&9=####$=9* ##$$$$$$$$$%%%%%%%$o%8",
">*%%%%%%%%%@%%%%=>6yr9Oooooooo#21+=>2qyr>oo######O#######$$#oo+0,%%%%%%%%%%%%%%%&:8tr6+XXXXXXX+4=#*=1wrr=  #########$O##$$@+oo$0",
">=%%%%%%%%%%@%%%=>5yrr1*>255566006wryrry9*###o  oooOoOoOOoXXX #9,%%%%%%%%%%%@%%%&,8rre:&>334444q66wrrryr5$### oooooooooooOooX %8",
">=%%%%%%%%%%&%%%=15yyrrryrrryww06523111rrw0ww0095=*##OOooooooo$9>%&%%%%%%%%%%%%%&,7rrrrettettrq065522>2wrwwww9006=%##Oo oooo  $6",
">=$$$%$%%%%%@%%%->5r6252>>>>>>;>>>>>>>101>2555156975536790992*=5>&%@%%%%%%%%%%$$&>8r333<>>,>>>>>=1>>>>29125525129696655999995*%6",
";=$*%%$$%%%%&%&@->2w2>>>>>>>>>>>>>-->>>q$-;>>>;;=>;;>>=:>>>3wry9>%%%%%%%%%%%%$**-:8r>>:,>>>>>>>>1===>>12*=>=>,>>;;;;;;;;>>>,rry7",
">**$*$$$%$%%%%%%;>501>>>>=*=======$$=>>q #=*==**%%****%**->>9ry9>%%%%%%@%@@%%$$$-:8r>:>,>==&==-***=*==>2#**====*******$**=>>7ry0",
">*####*$OoO@@$$@=>501>>-***$**$*$$$**=>w #$$$$$*%%$$$%%%%%>>1ry9,%@X@@&@XXX+$$$$&>8r>:,&*%%%%&$&*$***=12##$$%%$%$%%%$*$%*=>,1wy0",
"##ooooooooo oooo#;59>>-*%@%%%%&@%%%%$=>r#o#*$*$$%%%%%%%%$$*>>2y6$OXXoo o o Xoo X+-97>:=*$$&@&@&@$$%%%*,6*o*$%%%$$$%%$*$$*$*>>5r0",
"005*$***$$#oooooo#16>;*$&&%%%&@&%%%%%*>r*o#*$$$*%%%%$$%%$$*=>>wrq03=$$*$*$OXooXoX@6<>:*%&@@&$@@&*$%%%*,7=o#$%%$$%$%%$$*$%%*=>10r",
"rw955569w0511>=*##15>*$*%%%%@&%@%%%$%&>01o##%%%%$%**$%%%%%$$$*1rrw766669w0511>;=##6<:-%%@&&@@&@&$%%%%%>7;oO%%%%%$%%%%%*$%$$$**2r",
"52>>>>>139rryrr00992;**$%%%@&@&@%@%%%&>59oo**%$$$$#$%$$$$#Ooo#5952>>>>>259rrrrwq08e>:&%%&$@&&@&$%$%%%*>51Oo$%$$%$*%%$$##$#Ooo#59",
";>>>>>>>>>>39wyrryw>=%&@%@&@%%%%%%%%%*>,0# ###$$$$$$$###OXXX>q1>>>>>>>>>>>>26wryyyr>:%%%@&$&@&&@%%$%%%>20# oO#*$$$$%##$# # #=92>",
";;>>;>;==;>>>>29rrw>-%%&%%@&%%%%%%@%%$*>w>oo oooooooooooo#*63>>>;;;>;;=-=;:>>>10ry9>-%%%&@%@&@@&%$$%%$=1w*o ooo#OXooo##oo#*95>>=",
"$******%*$*==>>1wr5>*%%@&@&$&@%&@&&@$$*;r02;;;;---;=--=;=251;==**$*=**$*$$*-;>;>ry5,&$%%@$$&@$&@%%%$%%*>w71>=;===;-======161=*=*",
"$$$$%$$%$$$**=>1wr2>*%%%$&@%@&@@&@%&*$$*wyrrryrrrrrrrwr5;>>**%$%$$$$$$$$$*$%*=>>0r2:*%%%$&&@&@@&%%%%%%*=0yryryrryrrryyy0====*$**",
"$$%%%%@%%%%%@%->qr>;*$$%%%%%%$%%%%%%@%%*erttrrrrrrrrrryw$o#*$$%%%%%%%%%%%%%%%%&>7w1>*%%$%%$%$$$$%$%%$%%=0ytrrryyryryryyw#o#$$$$*",
"$*%$%%%%%%%%%%%:8r>;*$$$%%%%%%%%%%%%%@@$qrrrw9www52,221,1oo#$*%$%%%%%%%%$%%%%%%>901>%%%$%%%$**$#%%$$$$$%9rrrw000051211112o #$*$$",
"*$$*%@%%%@%%%%&:90=*$$$$%%%%%%%%$%%#+.X@002>>;;-;;;;>>>>w>oo#*$$%%%%$%$%%%%%%%%>57=*#$#$%%$*$%$*%%%$OoX$782,>;;;;;;>>>>,w1o##$$$",
"$$$$&%%%%%%%%%&:6>oooo##$%%%%%%$$$+O.+=66>===%%%****=>>>wr$oO$$$$$$%%%$$%%%%%%*>1,oooO##$$*$$**#$@@XoO=66,===*$*****=>>1w0$oO$$*",
"%@%%@@%%%%%%%%%>509>$oo#OO@$%%%$Oooo*602=%%%%%%%%%%%*=>>qr5OXo$$%%%$$$**%%%%$$$>3w61#oo#OO$$#$$#Oooo=802=&%%%%%$$$%%%->>qy5ooo$$",
"@+XXXXXO@@@+XX+&6yrrr6$ooXXoO$$ooo.>rr0#*%%%%%%%%%%%$*>>qyr1o XoOOOOo oo+@$+#o#=1yyrr6#o.ooo####OoO>rr9$$$%%%%%$$$%%%&>,0ry;oooX",
"++++@+@@$$@+@@O$2yrrryr9,$$#ooooo#3rrw9o$%%%%%%%%@$$$%>>wrrw=#$###+####$$$#O##o$2rryyyr0,$$## o#O$5wrw0O$$%%%%%$$%$%%%>>rryr=###",
"7469978e0862372,60079yrrrrr02;$O,2,,129#$$$%%%%%@&&$%$*2ww9w65669669990ww061591>50069ryrrrr02=##;5,,,19#@$%%%%%$%%%%%%=,rw009666",
"2333359r521>,<1,;;;;696670w09525w5***;6oO**$$$$#$$%%#$*1r2>11>222255356r911>111>=>==099679w09526r9***=9#o#$$*$$#$$$*$**>r5111111",
":->-=>2r1*$$%%%%##991,>,>>1>>>>9y6**$12#oO#oXXXXXXXO#o$1w;;=*%*==;>;=;>r6=*#***$#*691>>>>,,,>;;9r0*$*=9#o#$#ooooooOOOo$>w2;****=",
"%%$$$&3w5*%%#$$$1w5;>>>>>>1>>>>6r6***16$#o$##*$=>2>>1522w;=*%%%%$%%%**>r9*$*$$#$105>>>>>>,>>>>>9rw$**>9$##$#$$$*>1;;15310>*$%$*$",
"%$%$%*1w5=%$#$>901;1;,>,>>>>>>>5r9;;29w000000008979996160;*$%%%%*$%%$*>y9=$###1901;>>>>>>,>>;>>9rr==19ww9w990900969906220;**%$$$",
"%%%%%%,w6*##>5621>>>>,>>>-===>>2y9255551111>>,,,>>>>>*$55;$$*$%$%%%$*$;r9*##>5951>>>>1>=;--=;>>5r9255531111>111>>>>>>*o67-*%$*$%",
"%%%%%%>q9$-651>>;>>>,==$$$$$*;>2r5;>>;;>>>>>::>>>>;=#o*w2;$**$%$%%%$$$=r9#;951>>>>>1>===*%$$$>>5r6>>>>=;>;>>>=>>>>;=#X*r3-%%*$%%",
"%%%%%%=896w5>>>>>;>;*$%%$%$*$;>2y5>>;*$*=>>=%%%:*%%$oo-r1;**$$*$%%$$$**w99r5>>>>>>>=****%%%%$->5r5>1=*$*==>**%*==%%$o.1r1=*$%%%%",
"$@@@+@%9r91>>>>>>;**%%%%%%$*$*;1y5>;*$$$*$**&@%@%%%OO#60>*$##$$$$$#####9y91>>>>>>=*$$$$$%$%%%*;2r9>=**$$***$$$$$%$$+o#0w>*$@$@$$",
"X...ooo9r**;;-==**$$%%$%$$%%%%=2r5>=*$%%%%%%&@&&%%#oo-y2##OOo ooooooooo5r;*=;==;=$$*$$%%%@%%$*-<q8<-&@%%%%%%%%%%$%$Oo>r7+oXOXXOX",
"2<<<2210r;#$$*$$*$*$%$%%%%%%%%%>06>*$$$*%$%%@%%@%%Ooowr05256636631122229r;o$$*$$*$*$$*%%%%%%$**;q8:&%%%@%%%%%%%%%%Oo@6rq62476335",
"90wrrrryr1o#$$*$%%$$$**$%%%%%%%O26;$*$$$@%%%%%%%%$oo$w511>,23369900rrrrrr=o#$*$$#$*#$*$%%%%%$$#oq4:&%%%%%%%@%%%%@@X.=e<,<,,23367",
">:>5rrryr5o#$$$*%%$*$*$$%%%%%%#o;5>$$*$$%%%%%%%@$Ooo0w>>>>>>>>>:>>>6rryyr;o#$$$***##*$*%%%%%*$#o44:&@%%%@%%%%%%%%X.X28,,,>:::>>>",
">>>>5wyyr9oo#$$$$$##$*$#$$$#$#oo>5>#%%$%%%%%@&@&$XX@w6>>;-;;>>>>>>,>5ryry1oo$#$$####*#$#$%$$$+oo23;*%%%%%%%%@&%@@X.@84>:::-:,:::",
">>>>>5wwr0#o#o#oO#o####oo###Oooo-5>$%%%%%%%%&@%&@XX2r>>;****--:>>>>>,5wrr9#o###########oOO#Ooooo23;&%%%%%%%%%%@&@X.<e<,:%%%---->",
"*;>>>>10yw*oo oo  oo ooooo ooo o-5,$%%%%%@%%@@&@OX=qr>;*$$$*&@&*=-;>>>19yr#ooo  # oo ooooooooooo;5;-%@%%%%%%%%%@+.@e8<:%%%%%%%%&",
"$%%%;>>10r95596>,1=$$$*=*###$$oO*3>$%%%%%%%%&%@&OX3t3>=%%*$$$$$@$$$*->119y65295;;1**##*;-####*OoOq;*%%%%%%%%%%%%OXee4,&$%%%%%%%%",
"%%%%%;>>,0rryrrrrrrrrrrrrrwwww0909>*$$%%@%%%%@%$X@eq,>&%@&@$&@@&%%%%*->>19ryryrytyrywrwwwwwwww099w;-**%%@-@@%%%@X-eq<;%$%%%%%%%%",
"%%%%%*=>>,9rr9969666555325511111501*$$%$&&@%%%%+X4e4::%%&@&@@&&@%%%%$*;>>16yr06666555555555211115w;*$$%%%%@&%%%+X3t4;;%%%%%%%%%%",
"%%%$%%**-*>ry>>>;>>;>>>>>>;>1>>>5w1*$*$$@&%%%%$XXee,++%%$&@&&@$&$%%%$***===yw2;>>;>>>;;,;1;1;,,;9w1-%@%%%%@-%%%X@qt3+#%%%%%%%%%%",
"%%%%%%%%$o-rw>>-*-;>>,>>;--;>>>>9w1**$$$&@%@&@O.XtteOX$%%%%@@&&@$%%%$$$*$o=yw1>=*-->>,,;;**;1;;;ww;;%%%%%%@@%%+.-etq#X$%%%%%@%%%",
"%%%%%%%%oo1r5>=**$$$%**=****;>>1qw1**$$$%$+Xoooo3rrr=o#$%%$&&@$$$%$&*$$$Oo9y6>=$%%%%%-%-=$$*;;;,ww;-%%%%@@@X..XX<eee,.+%&@%%%%%%",
"%%%%%%%$oo5w,;*$$$$*%%%%$*#$=>;1r0>*$$**@OXX#**=09690OO$%@&@@&$&%$$$$$$$Oo9w1;*$%%%%%%%%***$-;,2yw;-%%%%@XXX+@-;48487@X%%&@%%%%%",
"%$%%%%%$##90,-*$%%$*%%%$$$$*$;>2rw1###oo#*:366321;>1r1o#$&&@&@&@&$&@*$*#Ooww1=$$%@%%%%%%$*#**;;5wy;%+.XX@%;<443<<::<q:X@%%%%%%@&",
"%%%%$%%O #r6>-$%%%%$$*%$*$$*$*>9r0$X#*>6rw93,,>>**$>w0oO@&$%%%@&@%@&$*$#o*w0>=$$%%%%%@*%$$$$$-;0yw%X+-;6qqq3<<,:-@&,93O+@%%%%%%@"
};
